<svg id="visual" viewBox="0 0 960 540" width="960" height="540" xmlns="http://www.w3.org/2000/svg" xmlns:xlink="http://www.w3.org/1999/xlink" version="1.1"><rect x="0" y="0" width="960" height="540" fill="#cfcfcf"></rect><defs><linearGradient id="grad1_0" x1="43.8%" y1="0%" x2="100%" y2="100%"><stop offset="14.444444444444446%" stop-color="#fdfdfc" stop-opacity="1"></stop><stop offset="85.55555555555554%" stop-color="#fdfdfc" stop-opacity="1"></stop></linearGradient></defs><defs><linearGradient id="grad1_1" x1="43.8%" y1="0%" x2="100%" y2="100%"><stop offset="14.444444444444446%" stop-color="#fdfdfc" stop-opacity="1"></stop><stop offset="85.55555555555554%" stop-color="#f6f6f5" stop-opacity="1"></stop></linearGradient></defs><defs><linearGradient id="grad1_2" x1="43.8%" y1="0%" x2="100%" y2="100%"><stop offset="14.444444444444446%" stop-color="#f0f0ef" stop-opacity="1"></stop><stop offset="85.55555555555554%" stop-color="#f6f6f5" stop-opacity="1"></stop></linearGradient></defs><defs><linearGradient id="grad1_3" x1="43.8%" y1="0%" x2="100%" y2="100%"><stop offset="14.444444444444446%" stop-color="#f0f0ef" stop-opacity="1"></stop><stop offset="85.55555555555554%" stop-color="#e9e9e9" stop-opacity="1"></stop></linearGradient></defs><defs><linearGradient id="grad1_4" x1="43.8%" y1="0%" x2="100%" y2="100%"><stop offset="14.444444444444446%" stop-color="#e3e3e2" stop-opacity="1"></stop><stop offset="85.55555555555554%" stop-color="#e9e9e9" stop-opacity="1"></stop></linearGradient></defs><defs><linearGradient id="grad1_5" x1="43.8%" y1="0%" x2="100%" y2="100%"><stop offset="14.444444444444446%" stop-color="#e3e3e2" stop-opacity="1"></stop><stop offset="85.55555555555554%" stop-color="#dcdcdc" stop-opacity="1"></stop></linearGradient></defs><defs><linearGradient id="grad1_6" x1="43.8%" y1="0%" x2="100%" y2="100%"><stop offset="14.444444444444446%" stop-color="#d5d5d5" stop-opacity="1"></stop><stop offset="85.55555555555554%" stop-color="#dcdcdc" stop-opacity="1"></stop></linearGradient></defs><defs><linearGradient id="grad1_7" x1="43.8%" y1="0%" x2="100%" y2="100%"><stop offset="14.444444444444446%" stop-color="#d5d5d5" stop-opacity="1"></stop><stop offset="85.55555555555554%" stop-color="#cfcfcf" stop-opacity="1"></stop></linearGradient></defs><defs><linearGradient id="grad2_0" x1="0%" y1="0%" x2="56.3%" y2="100%"><stop offset="14.444444444444446%" stop-color="#fdfdfc" stop-opacity="1"></stop><stop offset="85.55555555555554%" stop-color="#fdfdfc" stop-opacity="1"></stop></linearGradient></defs><defs><linearGradient id="grad2_1" x1="0%" y1="0%" x2="56.3%" y2="100%"><stop offset="14.444444444444446%" stop-color="#f6f6f5" stop-opacity="1"></stop><stop offset="85.55555555555554%" stop-color="#fdfdfc" stop-opacity="1"></stop></linearGradient></defs><defs><linearGradient id="grad2_2" x1="0%" y1="0%" x2="56.3%" y2="100%"><stop offset="14.444444444444446%" stop-color="#f6f6f5" stop-opacity="1"></stop><stop offset="85.55555555555554%" stop-color="#f0f0ef" stop-opacity="1"></stop></linearGradient></defs><defs><linearGradient id="grad2_3" x1="0%" y1="0%" x2="56.3%" y2="100%"><stop offset="14.444444444444446%" stop-color="#e9e9e9" stop-opacity="1"></stop><stop offset="85.55555555555554%" stop-color="#f0f0ef" stop-opacity="1"></stop></linearGradient></defs><defs><linearGradient id="grad2_4" x1="0%" y1="0%" x2="56.3%" y2="100%"><stop offset="14.444444444444446%" stop-color="#e9e9e9" stop-opacity="1"></stop><stop offset="85.55555555555554%" stop-color="#e3e3e2" stop-opacity="1"></stop></linearGradient></defs><defs><linearGradient id="grad2_5" x1="0%" y1="0%" x2="56.3%" y2="100%"><stop offset="14.444444444444446%" stop-color="#dcdcdc" stop-opacity="1"></stop><stop offset="85.55555555555554%" stop-color="#e3e3e2" stop-opacity="1"></stop></linearGradient></defs><defs><linearGradient id="grad2_6" x1="0%" y1="0%" x2="56.3%" y2="100%"><stop offset="14.444444444444446%" stop-color="#dcdcdc" stop-opacity="1"></stop><stop offset="85.55555555555554%" stop-color="#d5d5d5" stop-opacity="1"></stop></linearGradient></defs><defs><linearGradient id="grad2_7" x1="0%" y1="0%" x2="56.3%" y2="100%"><stop offset="14.444444444444446%" stop-color="#cfcfcf" stop-opacity="1"></stop><stop offset="85.55555555555554%" stop-color="#d5d5d5" stop-opacity="1"></stop></linearGradient></defs><g transform="translate(960, 0)"><path d="M0 540C-84.6 509.7 -169.2 479.4 -253 438.2C-336.8 397 -419.9 344.9 -467.7 270C-515.4 195.1 -527.7 97.6 -540 0L0 0Z" fill="#d2d2d2"></path><path d="M0 472.5C-74 446 -148 419.5 -221.4 383.4C-294.7 347.4 -367.5 301.7 -409.2 236.3C-450.9 170.8 -461.7 85.4 -472.5 0L0 0Z" fill="#d9d9d9"></path><path d="M0 405C-63.4 382.3 -126.9 359.6 -189.7 328.7C-252.6 297.7 -315 258.6 -350.7 202.5C-386.5 146.4 -395.8 73.2 -405 0L0 0Z" fill="#dfdfdf"></path><path d="M0 337.5C-52.9 318.6 -105.7 299.6 -158.1 273.9C-210.5 248.1 -262.5 215.5 -292.3 168.8C-322.1 122 -329.8 61 -337.5 0L0 0Z" fill="#e6e6e5"></path><path d="M0 270C-42.3 254.9 -84.6 239.7 -126.5 219.1C-168.4 198.5 -210 172.4 -233.8 135C-257.7 97.6 -263.8 48.8 -270 0L0 0Z" fill="#ececec"></path><path d="M0 202.5C-31.7 191.1 -63.4 179.8 -94.9 164.3C-126.3 148.9 -157.5 129.3 -175.4 101.3C-193.3 73.2 -197.9 36.6 -202.5 0L0 0Z" fill="#f3f3f2"></path><path d="M0 135C-21.1 127.4 -42.3 119.9 -63.2 109.6C-84.2 99.2 -105 86.2 -116.9 67.5C-128.8 48.8 -131.9 24.4 -135 0L0 0Z" fill="#fafaf9"></path><path d="M0 67.5C-10.6 63.7 -21.1 59.9 -31.6 54.8C-42.1 49.6 -52.5 43.1 -58.5 33.8C-64.4 24.4 -66 12.2 -67.5 0L0 0Z" fill="#fdfdfc"></path></g><g transform="translate(0, 540)"><path d="M0 -540C100.7 -529.5 201.4 -519 270 -467.7C338.6 -416.3 375.2 -324.2 414.8 -239.5C454.5 -154.8 497.2 -77.4 540 0L0 0Z" fill="#d2d2d2"></path><path d="M0 -472.5C88.1 -463.3 176.2 -454.1 236.2 -409.2C296.3 -364.3 328.3 -283.7 363 -209.6C397.7 -135.4 435.1 -67.7 472.5 0L0 0Z" fill="#d9d9d9"></path><path d="M0 -405C75.5 -397.1 151 -389.2 202.5 -350.7C254 -312.3 281.4 -243.2 311.1 -179.6C340.9 -116.1 372.9 -58 405 0L0 0Z" fill="#dfdfdf"></path><path d="M0 -337.5C62.9 -330.9 125.9 -324.4 168.7 -292.3C211.6 -260.2 234.5 -202.7 259.3 -149.7C284.1 -96.7 310.8 -48.4 337.5 0L0 0Z" fill="#e6e6e5"></path><path d="M0 -270C50.3 -264.7 100.7 -259.5 135 -233.8C169.3 -208.2 187.6 -162.1 207.4 -119.8C227.2 -77.4 248.6 -38.7 270 0L0 0Z" fill="#ececec"></path><path d="M0 -202.5C37.8 -198.6 75.5 -194.6 101.2 -175.4C127 -156.1 140.7 -121.6 155.6 -89.8C170.4 -58 186.5 -29 202.5 0L0 0Z" fill="#f3f3f2"></path><path d="M0 -135C25.2 -132.4 50.3 -129.7 67.5 -116.9C84.7 -104.1 93.8 -81.1 103.7 -59.9C113.6 -38.7 124.3 -19.3 135 0L0 0Z" fill="#fafaf9"></path><path d="M0 -67.5C12.6 -66.2 25.2 -64.9 33.7 -58.5C42.3 -52 46.9 -40.5 51.9 -29.9C56.8 -19.3 62.2 -9.7 67.5 0L0 0Z" fill="#fdfdfc"></path></g></svg>